<?xml version="1.0" standalone="no"?><!DOCTYPE svg PUBLIC "-//W3C//DTD SVG 1.1//EN" "http://www.w3.org/Graphics/SVG/1.1/DTD/svg11.dtd"><svg t="1705408769827" class="icon" viewBox="0 0 1024 1024" version="1.1" xmlns="http://www.w3.org/2000/svg" p-id="4276" width="38" height="38" xmlns:xlink="http://www.w3.org/1999/xlink"><path d="M786.672 245.739c-12.5-0.7-23.1 8.8-23.8 21.3v508.8c-1.7 22.2-19.3 39.9-41.6 41.6h-384c-26.1 0-54.7-21.7-54.7-41.6v-48c0-20.6 25.6-32.9 50.3-32.9h366.6c12.5 0.7 23.1-8.8 23.9-21.2 0.1-0.9 0.1-1.7 0-2.6v-427.7c0.6-44.2-34.7-80.5-78.9-81.1-3.5 0-7.1 0.1-10.6 0.6h-296.9c-23.9-0.5-47.5 6.5-67.2 20-19.7 13.8-31.3 36.5-30.8 60.6v550.1c8.3 41.4 42.9 72.4 85 76h397.1c47.9 0.6 87.5-37.1 89.5-84.9v-515c-0.7-12.8-10.9-23.1-23.7-23.9h-0.2z" fill="#1296db" p-id="4277"></path><path d="M703.772 734.539h-357.9c-13.2 0.5-23.4 11.6-22.9 24.8 0.5 12.4 10.5 22.4 22.9 22.9h357.9c13.2 0.5 24.3-9.7 24.8-22.9s-9.7-24.3-22.9-24.8h-1.9z" fill="#1296db" p-id="4278"></path><path d="M449.472 290.839h51.9l115 298.6h-48.9l-28-76.9h-128.4l-28 76.9h-48.5l114.9-298.6z m-24.6 184h100.8l-49.3-135.1h-1.7l-49.8 135.1z" fill="#1296db" p-id="4279"></path></svg>